PathFileType	4	(X/Y/Z)	s10c0201.trc
DataRate	CameraRate	NumFrames	NumMarkers	Units	OrigDataRate	OrigDataStartFrame	OrigNumFrames
200	200	4	50	mm	200	1250	2000
Frame#	Time	racr			lacr			c7			jug			rlel			rdr			llel			ldr			s2			lic			ric			lasi			rasi			rpsi			lpsi			rgt			lgt			rth1			rth2			rth3			rth4			rlfc			rmfc			rsh1			rsh2			rsh3			rsh4			rlmal			rmmal			rcal			rtoe			rmt5			lth1			lth2			lth4			lth3			llfc			lmfc			llmal			lmmal			lcal			lmt5			lsh1			lsh2			lsh3			lsh4			ltoe			SBIKE			LBIKE			RBIKE			
		X1	Y1	Z1	X2	Y2	Z2	X3	Y3	Z3	X4	Y4	Z4	X5	Y5	Z5	X6	Y6	Z6	X7	Y7	Z7	X8	Y8	Z8	X9	Y9	Z9	X10	Y10	Z10	X11	Y11	Z11	X12	Y12	Z12	X13	Y13	Z13	X14	Y14	Z14	X15	Y15	Z15	X16	Y16	Z16	X17	Y17	Z17	X18	Y18	Z18	X19	Y19	Z19	X20	Y20	Z20	X21	Y21	Z21	X22	Y22	Z22	X23	Y23	Z23	X24	Y24	Z24	X25	Y25	Z25	X26	Y26	Z26	X27	Y27	Z27	X28	Y28	Z28	X29	Y29	Z29	X30	Y30	Z30	X31	Y31	Z31	X32	Y32	Z32	X33	Y33	Z33	X34	Y34	Z34	X35	Y35	Z35	X36	Y36	Z36	X37	Y37	Z37	X38	Y38	Z38	X39	Y39	Z39	X40	Y40	Z40	X41	Y41	Z41	X42	Y42	Z42	X43	Y43	Z43	X44	Y44	Z44	X45	Y45	Z45	X46	Y46	Z46	X47	Y47	Z47	X48	Y48	Z48	X49	Y49	Z49	X50	Y50	Z50	
1250	6.2500	425.495969	1258.664896	-48.735775	453.996251	1270.110456	-338.254764	391.345513	1316.907930	-194.887652	393.629793	1170.673433	-194.126511	420.465512	1009.763643	52.260691	599.377800	912.229865	-30.872337	416.047837	1028.220501	-486.974350	584.624190	903.260665	-411.557456	-125.699930	1094.679916	-221.532251	37.563577	1114.978248	-374.156151	50.970508	1123.662989	-68.517644	66.084477	1032.345091	-342.323331	61.077247	1035.372993	-89.176052	-87.594032	1154.385470	-166.449362	-77.908640	1160.586352	-278.122234	-44.336369	999.852522	-35.029289	-51.537715	976.787308	-410.424533	62.436936	882.402380	-14.626487	142.822697	846.625056	-29.143988	191.256229	777.108124	-42.647457	164.984366	876.675654	-34.987783	276.150190	715.160914	-60.389650	265.392874	702.678992	-174.576222	230.459294	607.246279	-29.769875	245.915437	519.852616	-39.873028	216.762691	438.653134	-43.019867	276.739287	520.102635	-63.032519	201.722695	337.135009	-55.581907	221.182995	357.869786	-137.810922	150.628131	307.524350	-100.914127	392.789172	319.384795	-104.463695	317.039069	280.774677	-40.110138	49.935383	883.468594	-423.402617	131.335599	856.724406	-408.208463	149.949108	887.038954	-398.946934	190.107150	790.739406	-399.152531	271.346659	716.035933	-376.723880	258.019048	709.606249	-255.356620	-31.652998	495.012300	-375.566621	-17.958398	481.721976	-296.375283	-93.477571	499.185413	-330.010733	3.652590	352.729595	-399.128741	168.594331	657.690230	-409.311575	122.353439	583.346326	-392.246999	42.754974	542.948033	-389.213449	143.019207	565.471506	-365.485001	87.386944	320.926146	-346.092105	-218.325705	833.215916	-213.750458	-104.028936	80.365602	-418.392686	-103.993850	80.318373	-18.278823	
1251	6.2550	426.342203	1258.356986	-49.969269	452.340445	1273.168259	-339.719615	390.710249	1317.618335	-195.548627	395.259459	1171.557839	-196.712966	420.376140	1009.722588	50.268857	599.746286	912.256578	-30.212446	415.747977	1029.930099	-486.897292	584.190156	903.403347	-411.524932	-124.800291	1092.134591	-220.934641	37.382090	1113.286281	-373.493573	52.393919	1120.805814	-69.049788	65.749219	1029.674086	-341.366493	62.767921	1033.456952	-88.422498	-87.383818	1150.803943	-165.035833	-78.328223	1157.967496	-276.929213	-44.291459	994.450659	-33.870717	-48.921778	974.683374	-410.040944	60.434395	875.796339	-13.586603	140.038736	838.646226	-28.594839	186.963137	768.103215	-43.360009	162.925585	868.424039	-33.987503	269.803424	706.101207	-60.851002	259.253589	693.549667	-174.839946	223.509408	597.578802	-29.597485	240.327661	510.310194	-39.474167	212.495202	428.790432	-42.867600	271.672777	511.203077	-61.925690	199.072510	326.790914	-55.613456	218.807479	347.465322	-137.834527	148.019359	297.416953	-101.125393	390.343631	308.331572	-104.387663	314.363008	270.103407	-40.054547	55.656685	884.435183	-422.686945	137.484773	860.037683	-406.157774	155.003447	890.773308	-396.041176	198.141056	795.708659	-396.882883	280.126427	724.450600	-374.422331	268.073562	716.786588	-253.097611	-25.766890	505.375972	-375.339848	-13.004328	492.260649	-296.506226	-87.178933	511.227045	-330.332403	7.093157	362.825328	-399.233490	176.343621	666.133609	-408.201255	129.352662	592.026064	-391.412957	49.452369	552.689866	-389.019524	149.665728	574.065303	-364.556831	90.112231	329.413731	-346.166230	-218.334358	833.245078	-213.697462	-104.006014	80.374527	-418.404944	-103.991295	80.332810	-18.292414	
1252	6.2600	427.220370	1258.045915	-51.122271	450.747421	1275.873785	-341.140774	390.061593	1318.296502	-196.365512	396.763863	1172.454074	-199.189257	420.177619	1009.709648	48.251065	600.252507	912.362000	-29.427764	415.421545	1031.431983	-487.032974	583.978051	903.715504	-411.860531	-124.259129	1090.043552	-220.393885	37.121287	1111.895549	-372.803767	53.454818	1118.148328	-69.511272	65.369514	1027.250388	-340.640858	64.110582	1031.391954	-87.564469	-86.626268	1146.943006	-163.886051	-78.792607	1155.285600	-275.752780	-44.427150	989.424629	-32.109473	-46.275465	972.623505	-409.677186	58.079666	869.689322	-12.832349	136.824609	830.668200	-28.175702	182.230703	759.803354	-43.872402	160.692917	860.538072	-33.124876	263.635338	696.500874	-61.495526	253.332529	684.843254	-175.046988	216.599895	588.385873	-29.558237	234.427682	501.257433	-39.206542	207.532118	419.472507	-42.951179	266.139646	502.368067	-61.189254	195.751086	316.863553	-55.582521	215.750519	337.364620	-137.908850	145.494628	287.778008	-101.762509	387.389704	297.558266	-103.680270	311.037502	259.689063	-40.170853	61.345065	885.374072	-421.321187	143.781410	863.894207	-403.753876	160.280525	895.640582	-394.186823	205.983406	801.289141	-393.996928	288.986154	733.934079	-372.189408	275.036884	723.538614	-251.418789	-18.585387	516.278395	-375.324906	-6.842964	502.464493	-296.339302	-80.034419	523.070576	-330.705290	11.274803	372.631350	-399.435936	184.268414	674.883436	-406.865542	136.720636	600.871174	-390.398678	56.670267	562.105341	-388.693360	156.854928	582.938017	-363.442488	93.453756	337.521470	-346.134150	-218.343593	833.243822	-213.689507	-103.998107	80.407635	-418.391654	-103.999979	80.329189	-18.293915	
1253	6.2650	428.046568	1257.788389	-52.251398	449.267482	1278.334004	-342.621131	389.399381	1319.008590	-197.453380	398.148340	1173.415745	-201.701361	420.033560	1009.660041	46.275890	600.643906	912.503179	-28.683804	415.048521	1032.786388	-487.440776	584.029137	904.123682	-412.515428	-124.189660	1087.144291	-218.823421	36.806188	1110.399904	-372.092744	54.466696	1115.591184	-70.010988	65.049634	1025.091985	-339.713238	65.162180	1029.156657	-86.595948	-86.455539	1143.600841	-161.907094	-79.423985	1152.686171	-274.440001	-44.722963	984.522683	-30.196074	-43.044128	970.596539	-409.597564	56.399175	865.872296	-10.113266	133.779633	824.621102	-27.464731	177.022799	752.197355	-44.037874	158.183475	853.259540	-32.258138	257.102578	687.524026	-62.041508	247.497616	676.482515	-175.053460	209.820793	579.515141	-29.388498	228.185282	492.472069	-39.071357	201.756100	410.543451	-43.173043	260.055435	493.789872	-60.573277	191.989427	307.368884	-55.861612	211.119139	326.421360	-138.239245	141.335218	279.494682	-101.363138	383.851336	286.775709	-103.783455	307.086464	249.551755	-40.211851	67.788012	887.181267	-420.539101	149.952044	868.524351	-401.216956	165.078207	900.629229	-390.285072	215.163611	808.703640	-392.794567	297.584183	744.270875	-370.132337	282.744451	731.608963	-249.713391	-11.065287	526.664295	-374.971165	0.167192	512.515953	-296.079913	-71.978962	534.753989	-331.066243	16.069338	382.269512	-399.528492	191.701842	683.486046	-404.806783	144.630633	610.087573	-389.247371	64.353926	571.369999	-388.195473	164.470079	591.950836	-362.280790	97.359936	345.423082	-346.228900	-218.336608	833.263340	-213.636507	-104.023553	80.367079	-418.412466	-103.996282	80.310303	-18.282806	
